<?xml version="1.0" encoding="UTF-8" standalone="no"?>
<!DOCTYPE svg PUBLIC "-//W3C//DTD SVG 1.1//EN" "http://www.w3.org/Graphics/SVG/1.1/DTD/svg11.dtd">
<svg width="100%" height="100%" viewBox="0 0 2052 521" version="1.1" xmlns="http://www.w3.org/2000/svg" xmlns:xlink="http://www.w3.org/1999/xlink" xml:space="preserve" xmlns:serif="http://www.serif.com/" style="fill-rule:evenodd;clip-rule:evenodd;stroke-linejoin:round;stroke-miterlimit:2;">
    <g id="BARCELONA" transform="matrix(1.21286,0,0,1.21286,-490.988,-274.908)">
        <path d="M404.819,230.031L479.526,230.031C510.483,230.031 532.553,234.621 545.737,243.8C558.92,252.98 565.512,266.164 565.512,283.351C565.512,292.726 563.828,300.685 560.458,307.228C557.089,313.771 552.841,318.947 547.714,322.755C542.587,326.564 537.338,329.152 531.967,330.519L531.967,331.984C537.827,333.449 543.662,335.866 549.472,339.235C555.283,342.604 560.117,347.633 563.974,354.323C567.832,361.012 569.76,370.07 569.76,381.496C569.76,394.484 566.464,405.666 559.873,415.041C553.281,424.416 543.881,431.618 531.674,436.647C519.467,441.676 504.965,444.191 488.168,444.191L404.819,444.191L404.819,230.031ZM462.68,312.209L480.112,312.209C489.682,312.209 496.42,310.231 500.327,306.276C504.233,302.321 506.186,297.511 506.186,291.847C506.186,285.988 503.964,281.52 499.521,278.444C495.078,275.368 488.217,273.83 478.94,273.83L462.68,273.83L462.68,312.209ZM462.68,354.543L462.68,399.513L483.041,399.513C493.1,399.513 500.131,397.34 504.135,392.995C508.139,388.649 510.141,383.205 510.141,376.662C510.141,372.853 509.287,369.264 507.578,365.895C505.869,362.526 502.963,359.792 498.862,357.692C494.76,355.592 489.096,354.543 481.87,354.543L462.68,354.543Z" style="fill-rule:nonzero;"/>
        <path d="M720.064,444.191L709.517,404.054L639.937,404.054L629.097,444.191L565.523,444.191L635.396,229.152L712.593,229.152L783.345,444.191L720.064,444.191ZM697.505,356.593L688.277,321.437C687.3,317.629 685.884,312.184 684.029,305.104C682.173,298.024 680.342,290.7 678.535,283.131C676.729,275.563 675.337,269.338 674.361,264.455C673.482,269.338 672.237,275.368 670.625,282.546C669.014,289.723 667.354,296.828 665.645,303.859C663.936,310.89 662.447,316.75 661.177,321.437L651.948,356.593L697.505,356.593Z" style="fill-rule:nonzero;"/>
        <path d="M861.356,230.031C880.789,230.031 896.951,232.399 909.842,237.135C922.732,241.872 932.425,248.927 938.919,258.302C945.413,267.677 948.66,279.347 948.66,293.312C948.66,302.004 947.195,309.914 944.266,317.043C941.336,324.171 937.161,330.544 931.741,336.159C926.321,341.774 919.852,346.681 912.332,350.88L974.734,444.191L909.109,444.191L863.699,366.261L849.051,366.261L849.051,444.191L791.19,444.191L791.19,230.031L861.356,230.031ZM860.477,273.83L849.051,273.83L849.051,322.755L859.891,322.755C868.777,322.755 876.053,320.802 881.717,316.896C887.381,312.99 890.213,306.007 890.213,295.949C890.213,289.015 887.869,283.595 883.182,279.689C878.494,275.783 870.926,273.83 860.477,273.83Z" style="fill-rule:nonzero;"/>
        <path d="M1071.28,274.416C1064.44,274.416 1058.34,275.856 1052.97,278.737C1047.6,281.618 1043.01,285.793 1039.2,291.261C1035.39,296.73 1032.48,303.395 1030.48,311.256C1028.48,319.118 1027.48,328.029 1027.48,337.99C1027.48,351.466 1029.19,362.795 1032.61,371.974C1036.02,381.154 1041.22,388.088 1048.21,392.775C1055.19,397.463 1063.95,399.806 1074.5,399.806C1084.07,399.806 1093.28,398.488 1102.11,395.851C1110.95,393.214 1119.86,390.041 1128.85,386.33L1128.85,435.255C1119.37,439.455 1109.68,442.482 1099.77,444.338C1089.86,446.193 1079.34,447.121 1068.2,447.121C1044.96,447.121 1025.94,442.506 1011.15,433.278C996.351,424.049 985.463,411.232 978.48,394.826C971.498,378.42 968.007,359.377 968.007,337.697C968.007,321.486 970.277,306.642 974.818,293.166C979.359,279.689 986.024,267.995 994.813,258.083C1003.6,248.171 1014.47,240.504 1027.41,235.085C1040.35,229.665 1055.16,226.955 1071.86,226.955C1082.22,226.955 1093.13,228.151 1104.6,230.544C1116.08,232.936 1127.28,236.769 1138.22,242.043L1120.5,287.599C1112.68,283.888 1104.77,280.763 1096.77,278.224C1088.76,275.685 1080.26,274.416 1071.28,274.416Z" style="fill-rule:nonzero;"/>
        <path d="M1273.44,444.191L1146.3,444.191L1146.3,230.031L1273.44,230.031L1273.44,276.466L1204.16,276.466L1204.16,310.158L1268.32,310.158L1268.32,356.593L1204.16,356.593L1204.16,397.023L1273.44,397.023L1273.44,444.191Z" style="fill-rule:nonzero;"/>
        <path d="M1298.64,444.191L1298.64,230.031L1356.5,230.031L1356.5,397.463L1438.98,397.463L1438.98,444.191L1298.64,444.191Z" style="fill-rule:nonzero;"/>
        <path d="M1643.34,336.818C1643.34,353.322 1641.37,368.337 1637.41,381.862C1633.45,395.387 1627.28,407.033 1618.88,416.798C1610.48,426.564 1599.69,434.059 1586.51,439.284C1573.32,444.508 1557.55,447.121 1539.19,447.121C1521.22,447.121 1505.67,444.508 1492.54,439.284C1479.4,434.059 1468.59,426.588 1460.09,416.872C1451.6,407.155 1445.3,395.509 1441.19,381.935C1437.09,368.361 1435.04,353.224 1435.04,336.525C1435.04,314.259 1438.73,294.899 1446.1,278.444C1453.48,261.989 1464.88,249.245 1480.31,240.212C1495.74,231.178 1515.46,226.662 1539.49,226.662C1563.9,226.662 1583.75,231.203 1599.03,240.285C1614.32,249.367 1625.52,262.16 1632.65,278.664C1639.78,295.168 1643.34,314.552 1643.34,336.818ZM1495.98,336.818C1495.98,349.709 1497.44,360.793 1500.37,370.07C1503.3,379.347 1507.94,386.476 1514.29,391.457C1520.64,396.437 1528.94,398.927 1539.19,398.927C1549.84,398.927 1558.31,396.437 1564.61,391.457C1570.91,386.476 1575.45,379.347 1578.23,370.07C1581.01,360.793 1582.41,349.709 1582.41,336.818C1582.41,317.482 1579.18,302.199 1572.74,290.968C1566.29,279.738 1555.21,274.123 1539.49,274.123C1529.04,274.123 1520.61,276.662 1514.22,281.74C1507.82,286.818 1503.18,294.045 1500.3,303.42C1497.42,312.795 1495.98,323.927 1495.98,336.818Z" style="fill-rule:nonzero;"/>
        <path d="M1867.62,444.191L1791.74,444.191L1713.52,293.312L1712.2,293.312C1712.69,297.902 1713.13,303.42 1713.52,309.865C1713.91,316.31 1714.25,322.878 1714.55,329.567C1714.84,336.256 1714.98,342.287 1714.98,347.658L1714.98,444.191L1663.72,444.191L1663.72,230.031L1739.3,230.031L1817.23,378.859L1818.11,378.859C1817.82,374.171 1817.52,368.727 1817.23,362.526C1816.94,356.325 1816.67,350.05 1816.42,343.703C1816.18,337.355 1816.06,331.74 1816.06,326.857L1816.06,230.031L1867.62,230.031L1867.62,444.191Z" style="fill-rule:nonzero;"/>
        <path d="M2033.01,444.191L2022.46,404.054L1952.88,404.054L1942.04,444.191L1878.47,444.191L1948.34,229.152L2025.54,229.152L2096.29,444.191L2033.01,444.191ZM2010.45,356.593L2001.22,321.437C2000.24,317.629 1998.83,312.184 1996.97,305.104C1995.12,298.024 1993.29,290.7 1991.48,283.131C1989.67,275.563 1988.28,269.338 1987.3,264.455C1986.42,269.338 1985.18,275.368 1983.57,282.546C1981.96,289.723 1980.3,296.828 1978.59,303.859C1976.88,310.89 1975.39,316.75 1974.12,321.437L1964.89,356.593L2010.45,356.593Z" style="fill-rule:nonzero;"/>
    </g>
    <g id="ZA-DEN" serif:id="ZA DEN" transform="matrix(1,0,0,1,-217.113,-212.662)">
        <g transform="matrix(0.435632,0,0,0.99993,128.765,-22.6114)">
            <path d="M504.479,717.776L222.557,717.776L222.557,695.086L404.2,581.633L227.481,581.633L227.481,552.733L499.556,552.733L499.556,575.311L318.172,688.877L504.479,688.877L504.479,717.776Z" style="fill-rule:nonzero;"/>
            <path d="M775.008,717.776L747.541,678.491L609.431,678.491L581.964,717.776L495.418,717.776L629.124,552.056L727.33,552.056L861.554,717.776L775.008,717.776ZM728.367,649.14L700.9,610.758C699.172,608.199 696.884,604.906 694.033,600.88C691.183,596.854 688.333,592.752 685.482,588.575C682.632,584.398 680.343,580.767 678.616,577.681C676.888,580.767 674.513,584.586 671.49,589.14C668.467,593.693 665.573,598.001 662.809,602.065C660.045,606.129 658.059,609.027 656.85,610.758L629.642,649.14L728.367,649.14Z" style="fill-rule:nonzero;"/>
        </g>
        <g transform="matrix(0.706362,0,0,0.932853,582.105,14.0671)">
            <path d="M470.719,640.257C470.719,660.183 465.685,676.821 455.617,690.172C445.549,703.523 430.98,713.567 411.91,720.303C392.84,727.039 369.881,730.407 343.034,730.407L276.874,730.407L276.874,553.496L350.225,553.496C374.729,553.496 395.983,556.783 413.987,563.358C431.992,569.933 445.949,579.653 455.857,592.52C465.765,605.387 470.719,621.3 470.719,640.257ZM419.261,641.225C419.261,628.157 416.731,617.407 411.67,608.977C406.61,600.547 399.152,594.315 389.297,590.282C379.443,586.248 367.271,584.232 352.782,584.232L326.414,584.232L326.414,699.429L347.668,699.429C371.852,699.429 389.83,694.549 401.603,684.787C413.375,675.026 419.261,660.506 419.261,641.225Z" style="fill-rule:nonzero;"/>
            <path d="M623.913,730.407L489.357,730.407L489.357,553.496L623.913,553.496L623.913,584.232L538.897,584.232L538.897,623.074L618.001,623.074L618.001,653.81L538.897,653.81L538.897,699.429L623.913,699.429L623.913,730.407Z" style="fill-rule:nonzero;"/>
            <path d="M850.14,730.407L787.176,730.407L685.54,596.574L684.101,596.574C684.528,602.14 684.9,607.747 685.22,613.394C685.54,619.041 685.859,624.668 686.179,630.274C686.499,635.881 686.818,641.508 687.138,647.155L687.138,730.407L642.872,730.407L642.872,553.496L705.356,553.496L806.832,685.997L807.951,685.997C807.738,680.512 807.472,675.067 807.152,669.662C806.832,664.257 806.539,658.852 806.273,653.447C806.007,648.042 805.767,642.637 805.554,637.232L805.554,553.496L850.14,553.496L850.14,730.407Z" style="fill-rule:nonzero;"/>
        </g>
    </g>
    <g id="_1" serif:id="1" transform="matrix(1,0,0,1,-217.113,-212.662)">
        <g transform="matrix(0.868307,0,0,0.868307,96.2459,108.23)">
            <circle cx="618.216" cy="583.501" r="136.024" style="fill:rgb(0,178,0);"/>
        </g>
        <g transform="matrix(0.435632,0,0,0.99993,392.374,3.87904)">
            <path d="M608.591,668.758L533.68,668.758L533.68,603.934C533.68,601.031 533.774,597.817 533.961,594.29C534.147,590.763 534.428,587.589 534.801,584.768C531.563,586.45 528.543,587.888 525.741,589.081C522.939,590.275 520.23,591.387 517.615,592.418L486.604,603.568L448.309,583.059L542.087,549.772L608.591,549.772L608.591,668.758Z" style="fill:white;fill-rule:nonzero;"/>
        </g>
    </g>
    <g id="BSP" transform="matrix(1,0,0,1,-217.113,-212.662)">
        <g transform="matrix(0.994076,0,0,1.02988,7.69491,-20.7414)">
            <path d="M2271.97,557.398L2271.97,671.217C2271.97,683.927 2261.28,694.245 2248.11,694.245L1322.85,694.245C1309.68,694.245 1298.99,683.927 1298.99,671.217L1298.99,557.398C1298.99,544.689 1309.68,534.371 1322.85,534.371L2248.11,534.371C2261.28,534.371 2271.97,544.689 2271.97,557.398Z"/>
        </g>
        <g transform="matrix(1.43451,0,0,0.508634,1003.44,309.979)">
            <path d="M266.395,548.889L279.414,548.889C284.809,548.889 288.656,551.145 290.953,555.657C293.251,560.169 294.4,566.649 294.4,575.097C294.4,579.705 294.106,583.617 293.519,586.833C292.932,590.049 292.192,592.593 291.298,594.465C290.404,596.337 289.49,597.609 288.554,598.281L288.554,599.001C289.575,599.721 290.592,600.909 291.604,602.565C292.617,604.221 293.459,606.693 294.132,609.98C294.804,613.268 295.14,617.72 295.14,623.336C295.14,629.72 294.566,635.216 293.417,639.824C292.268,644.432 290.63,647.972 288.503,650.444C286.375,652.916 283.848,654.152 280.921,654.152L266.395,654.152L266.395,548.889ZM276.479,589.281L279.517,589.281C281.184,589.281 282.359,588.309 283.039,586.365C283.72,584.421 284.061,582.057 284.061,579.273C284.061,576.393 283.673,574.197 282.899,572.685C282.125,571.173 280.929,570.417 279.312,570.417L276.479,570.417L276.479,589.281ZM276.479,610.088L276.479,632.192L280.027,632.192C281.78,632.192 283.005,631.124 283.703,628.988C284.401,626.852 284.75,624.176 284.75,620.96C284.75,619.088 284.601,617.324 284.303,615.668C284.005,614.012 283.499,612.668 282.784,611.636C282.069,610.604 281.082,610.088 279.823,610.088L276.479,610.088Z" style="fill:white;fill-rule:nonzero;"/>
            <path d="M322.38,654.152L320.542,634.424L308.416,634.424L306.527,654.152L295.447,654.152L307.624,548.457L321.078,548.457L333.408,654.152L322.38,654.152ZM318.449,611.096L316.84,593.817C316.67,591.945 316.423,589.269 316.1,585.789C315.777,582.309 315.457,578.709 315.143,574.989C314.828,571.269 314.585,568.209 314.415,565.809C314.262,568.209 314.045,571.173 313.764,574.701C313.483,578.229 313.194,581.721 312.896,585.177C312.598,588.633 312.339,591.513 312.117,593.817L310.509,611.096L318.449,611.096Z" style="fill:white;fill-rule:nonzero;"/>
            <path d="M347.526,548.889C350.913,548.889 353.73,550.053 355.976,552.381C358.223,554.709 359.912,558.177 361.044,562.785C362.176,567.393 362.742,573.129 362.742,579.993C362.742,584.265 362.486,588.153 361.976,591.657C361.465,595.161 360.738,598.293 359.793,601.053C358.848,603.813 357.721,606.225 356.41,608.288L367.286,654.152L355.849,654.152L347.935,615.848L345.382,615.848L345.382,654.152L335.298,654.152L335.298,548.889L347.526,548.889ZM347.373,570.417L345.382,570.417L345.382,594.465L347.271,594.465C348.82,594.465 350.088,593.505 351.075,591.585C352.062,589.665 352.556,586.233 352.556,581.289C352.556,577.881 352.147,575.217 351.33,573.297C350.513,571.377 349.194,570.417 347.373,570.417Z" style="fill:white;fill-rule:nonzero;"/>
            <path d="M385.156,570.705C383.965,570.705 382.901,571.413 381.965,572.829C381.029,574.245 380.229,576.297 379.566,578.985C378.902,581.673 378.396,584.949 378.047,588.813C377.698,592.677 377.523,597.057 377.523,601.953C377.523,608.576 377.821,614.144 378.417,618.656C379.013,623.168 379.919,626.576 381.136,628.88C382.353,631.184 383.88,632.336 385.718,632.336C387.386,632.336 388.99,631.688 390.53,630.392C392.07,629.096 393.623,627.536 395.189,625.712L395.189,649.76C393.538,651.824 391.849,653.312 390.122,654.224C388.394,655.136 386.561,655.592 384.62,655.592C380.57,655.592 377.255,653.324 374.677,648.788C372.099,644.252 370.201,637.952 368.984,629.888C367.767,621.824 367.159,612.464 367.159,601.809C367.159,593.841 367.554,586.545 368.346,579.921C369.137,573.297 370.299,567.549 371.831,562.677C373.362,557.805 375.256,554.037 377.511,551.373C379.766,548.709 382.348,547.377 385.259,547.377C387.063,547.377 388.965,547.965 390.964,549.141C392.964,550.317 394.917,552.201 396.823,554.793L393.734,577.185C392.373,575.361 390.994,573.825 389.598,572.577C388.203,571.329 386.722,570.705 385.156,570.705Z" style="fill:white;fill-rule:nonzero;"/>
            <path d="M422.48,654.152L400.321,654.152L400.321,548.889L422.48,548.889L422.48,571.713L410.405,571.713L410.405,588.273L421.587,588.273L421.587,611.096L410.405,611.096L410.405,630.968L422.48,630.968L422.48,654.152Z" style="fill:white;fill-rule:nonzero;"/>
            <path d="M426.872,654.152L426.872,548.889L436.956,548.889L436.956,631.184L451.328,631.184L451.328,654.152L426.872,654.152Z" style="fill:white;fill-rule:nonzero;"/>
            <path d="M490.082,601.377C490.082,609.488 489.737,616.868 489.048,623.516C488.358,630.164 487.282,635.888 485.818,640.688C484.355,645.488 482.474,649.172 480.177,651.74C477.879,654.308 475.13,655.592 471.931,655.592C468.799,655.592 466.089,654.308 463.8,651.74C461.511,649.172 459.626,645.5 458.145,640.724C456.665,635.948 455.567,630.224 454.852,623.552C454.137,616.88 453.78,609.44 453.78,601.233C453.78,590.289 454.422,580.773 455.707,572.685C456.992,564.597 458.979,558.333 461.668,553.893C464.357,549.453 467.795,547.233 471.982,547.233C476.237,547.233 479.696,549.465 482.359,553.929C485.023,558.393 486.976,564.681 488.218,572.793C489.46,580.905 490.082,590.433 490.082,601.377ZM464.4,601.377C464.4,607.713 464.655,613.16 465.166,617.72C465.676,622.28 466.485,625.784 467.591,628.232C468.697,630.68 470.144,631.904 471.931,631.904C473.786,631.904 475.262,630.68 476.36,628.232C477.458,625.784 478.249,622.28 478.734,617.72C479.219,613.16 479.462,607.713 479.462,601.377C479.462,591.873 478.9,584.361 477.777,578.841C476.654,573.321 474.722,570.561 471.982,570.561C470.161,570.561 468.693,571.809 467.578,574.305C466.463,576.801 465.655,580.353 465.153,584.961C464.651,589.569 464.4,595.041 464.4,601.377Z" style="fill:white;fill-rule:nonzero;"/>
            <path d="M530.213,654.152L516.99,654.152L503.357,579.993L503.128,579.993C503.213,582.249 503.289,584.961 503.357,588.129C503.425,591.297 503.485,594.525 503.536,597.813C503.587,601.101 503.613,604.065 503.613,606.705L503.613,654.152L494.678,654.152L494.678,548.889L507.85,548.889L521.432,622.04L521.585,622.04C521.534,619.736 521.483,617.06 521.432,614.012C521.381,610.964 521.334,607.881 521.291,604.761C521.249,601.641 521.227,598.881 521.227,596.481L521.227,548.889L530.213,548.889L530.213,654.152Z" style="fill:white;fill-rule:nonzero;"/>
            <path d="M559.036,654.152L557.198,634.424L545.072,634.424L543.183,654.152L532.103,654.152L544.281,548.457L557.734,548.457L570.065,654.152L559.036,654.152ZM555.105,611.096L553.496,593.817C553.326,591.945 553.079,589.269 552.756,585.789C552.433,582.309 552.114,578.709 551.799,574.989C551.484,571.269 551.241,568.209 551.071,565.809C550.918,568.209 550.701,571.173 550.42,574.701C550.139,578.229 549.85,581.721 549.552,585.177C549.254,588.633 548.995,591.513 548.774,593.817L547.165,611.096L555.105,611.096Z" style="fill:white;fill-rule:nonzero;"/>
            <path d="M607.797,622.184C607.797,627.896 607.287,633.308 606.266,638.42C605.245,643.532 603.658,647.672 601.505,650.84C599.352,654.008 596.573,655.592 593.17,655.592C591.468,655.592 589.974,655.376 588.689,654.944C587.404,654.512 586.209,653.804 585.103,652.82C583.996,651.836 582.847,650.552 581.656,648.968L581.656,623.624C583.681,626.504 585.724,628.7 587.783,630.212C589.842,631.724 591.706,632.48 593.374,632.48C594.378,632.48 595.199,632.144 595.837,631.472C596.476,630.8 596.948,629.876 597.254,628.7C597.56,627.524 597.714,626.168 597.714,624.632C597.714,622.808 597.488,621.26 597.037,619.988C596.586,618.716 595.867,617.384 594.88,615.992C593.893,614.6 592.591,612.872 590.974,610.808C589.596,608.984 588.349,607.113 587.234,605.193C586.119,603.273 585.166,601.077 584.375,598.605C583.584,596.133 582.975,593.241 582.55,589.929C582.124,586.617 581.911,582.705 581.911,578.193C581.911,571.425 582.503,565.749 583.686,561.165C584.868,556.581 586.519,553.137 588.638,550.833C590.757,548.529 593.204,547.377 595.978,547.377C598.411,547.377 600.603,548.145 602.551,549.681C604.5,551.217 606.249,552.969 607.797,554.937L604.709,576.897C603.109,574.833 601.534,573.189 599.986,571.965C598.437,570.741 596.999,570.129 595.671,570.129C594.803,570.129 594.093,570.429 593.54,571.029C592.987,571.629 592.578,572.433 592.314,573.441C592.051,574.449 591.919,575.601 591.919,576.897C591.919,578.529 592.144,579.993 592.595,581.289C593.046,582.585 593.804,583.989 594.867,585.501C595.931,587.013 597.382,588.969 599.22,591.369C601.041,593.673 602.59,596.157 603.866,598.821C605.142,601.485 606.117,604.677 606.789,608.396C607.461,612.116 607.797,616.712 607.797,622.184Z" style="fill:white;fill-rule:nonzero;"/>
            <path d="M635.778,548.889C640.51,548.889 644.054,551.793 646.411,557.601C648.768,563.409 649.947,571.665 649.947,582.369C649.947,587.169 649.704,591.777 649.219,596.193C648.734,600.609 647.943,604.545 646.845,608.001C645.747,611.456 644.292,614.192 642.48,616.208C640.667,618.224 638.433,619.232 635.778,619.232L632.945,619.232L632.945,654.152L622.861,654.152L622.861,548.889L635.778,548.889ZM635.549,571.857L632.945,571.857L632.945,596.049L634.936,596.049C635.804,596.049 636.612,595.629 637.361,594.789C638.11,593.949 638.71,592.581 639.161,590.685C639.612,588.789 639.838,586.257 639.838,583.089C639.838,579.777 639.489,577.077 638.791,574.989C638.093,572.901 637.012,571.857 635.549,571.857Z" style="fill:white;fill-rule:nonzero;"/>
            <path d="M676.651,654.152L674.813,634.424L662.686,634.424L660.797,654.152L649.718,654.152L661.895,548.457L675.349,548.457L687.679,654.152L676.651,654.152ZM672.719,611.096L671.111,593.817C670.941,591.945 670.694,589.269 670.371,585.789C670.047,582.309 669.728,578.709 669.413,574.989C669.098,571.269 668.856,568.209 668.686,565.809C668.533,568.209 668.316,571.173 668.035,574.701C667.754,578.229 667.465,581.721 667.167,585.177C666.869,588.633 666.609,591.513 666.388,593.817L664.78,611.096L672.719,611.096Z" style="fill:white;fill-rule:nonzero;"/>
            <path d="M721.812,548.889L709.583,654.152L697.713,654.152L685.535,548.889L696.87,548.889L701.95,602.241C702.138,604.257 702.355,606.837 702.601,609.98C702.848,613.124 703.078,616.256 703.291,619.376C703.503,622.496 703.635,625.04 703.686,627.008C703.754,625.04 703.882,622.52 704.069,619.448C704.256,616.376 704.465,613.292 704.695,610.196C704.924,607.101 705.141,604.545 705.346,602.529L710.528,548.889L721.812,548.889Z" style="fill:white;fill-rule:nonzero;"/>
            <path d="M723.702,654.152L723.702,548.889L733.785,548.889L733.785,631.184L748.158,631.184L748.158,654.152L723.702,654.152Z" style="fill:white;fill-rule:nonzero;"/>
            <path d="M786.911,601.377C786.911,609.488 786.567,616.868 785.877,623.516C785.188,630.164 784.112,635.888 782.648,640.688C781.184,645.488 779.304,649.172 777.006,651.74C774.709,654.308 771.96,655.592 768.76,655.592C765.629,655.592 762.919,654.308 760.63,651.74C758.34,649.172 756.456,645.5 754.975,640.724C753.494,635.948 752.397,630.224 751.682,623.552C750.967,616.88 750.61,609.44 750.61,601.233C750.61,590.289 751.252,580.773 752.537,572.685C753.822,564.597 755.809,558.333 758.498,553.893C761.187,549.453 764.625,547.233 768.811,547.233C773.066,547.233 776.525,549.465 779.189,553.929C781.852,558.393 783.805,564.681 785.048,572.793C786.29,580.905 786.911,590.433 786.911,601.377ZM761.229,601.377C761.229,607.713 761.485,613.16 761.995,617.72C762.506,622.28 763.314,625.784 764.421,628.232C765.527,630.68 766.973,631.904 768.76,631.904C770.616,631.904 772.092,630.68 773.19,628.232C774.287,625.784 775.079,622.28 775.564,617.72C776.049,613.16 776.291,607.713 776.291,601.377C776.291,591.873 775.73,584.361 774.606,578.841C773.483,573.321 771.552,570.561 768.811,570.561C766.99,570.561 765.523,571.809 764.408,574.305C763.293,576.801 762.485,580.353 761.983,584.961C761.481,589.569 761.229,595.041 761.229,601.377Z" style="fill:white;fill-rule:nonzero;"/>
            <path d="M823.239,548.889L823.239,612.248C823.239,621.08 822.644,628.748 821.452,635.252C820.261,641.756 818.474,646.772 816.091,650.3C813.709,653.828 810.722,655.592 807.131,655.592C801.991,655.592 798.068,651.872 795.362,644.432C792.656,636.992 791.303,626.48 791.303,612.896L791.303,548.889L801.438,548.889L801.438,610.664C801.438,618.104 801.931,623.504 802.919,626.864C803.906,630.224 805.361,631.904 807.284,631.904C808.663,631.904 809.786,631.172 810.654,629.708C811.522,628.244 812.156,625.928 812.556,622.76C812.956,619.592 813.156,615.512 813.156,610.52L813.156,548.889L823.239,548.889Z" style="fill:white;fill-rule:nonzero;"/>
        </g>
    </g>
</svg>
