<?xml version="1.0" encoding="UTF-8" standalone="no"?>
<!DOCTYPE svg PUBLIC "-//W3C//DTD SVG 1.1//EN" "http://www.w3.org/Graphics/SVG/1.1/DTD/svg11.dtd">
<svg width="100%" height="100%" viewBox="0 0 2065 535" version="1.1" xmlns="http://www.w3.org/2000/svg" xmlns:xlink="http://www.w3.org/1999/xlink" xml:space="preserve" xmlns:serif="http://www.serif.com/" style="fill-rule:evenodd;clip-rule:evenodd;stroke-linejoin:round;stroke-miterlimit:2;">
    <g id="Artboard2" transform="matrix(1,0,0,1,2138.1,2910.61)">
        <rect x="-2138.1" y="-2910.61" width="2064.01" height="534.849" style="fill:none;"/>
        <g transform="matrix(1.21286,0,0,1.21286,-2622.98,-3178.85)">
            <path d="M404.819,230.031L479.526,230.031C510.483,230.031 532.553,234.621 545.737,243.8C558.92,252.98 565.512,266.164 565.512,283.351C565.512,292.726 563.828,300.685 560.458,307.228C557.089,313.771 552.841,318.947 547.714,322.755C542.587,326.564 537.338,329.152 531.967,330.519L531.967,331.984C537.827,333.449 543.662,335.866 549.472,339.235C555.283,342.604 560.117,347.633 563.974,354.323C567.832,361.012 569.76,370.07 569.76,381.496C569.76,394.484 566.464,405.666 559.873,415.041C553.281,424.416 543.881,431.618 531.674,436.647C519.467,441.676 504.965,444.191 488.168,444.191L404.819,444.191L404.819,230.031ZM462.68,312.209L480.112,312.209C489.682,312.209 496.42,310.231 500.327,306.276C504.233,302.321 506.186,297.511 506.186,291.847C506.186,285.988 503.964,281.52 499.521,278.444C495.078,275.368 488.217,273.83 478.94,273.83L462.68,273.83L462.68,312.209ZM462.68,354.543L462.68,399.513L483.041,399.513C493.1,399.513 500.131,397.34 504.135,392.995C508.139,388.649 510.141,383.205 510.141,376.662C510.141,372.853 509.287,369.264 507.578,365.895C505.869,362.526 502.963,359.792 498.862,357.692C494.76,355.592 489.096,354.543 481.87,354.543L462.68,354.543Z"/>
            <path d="M720.064,444.191L709.517,404.054L639.937,404.054L629.097,444.191L565.523,444.191L635.396,229.152L712.593,229.152L783.345,444.191L720.064,444.191ZM697.505,356.593L688.277,321.437C687.3,317.629 685.884,312.184 684.029,305.104C682.173,298.024 680.342,290.7 678.535,283.131C676.729,275.563 675.337,269.338 674.361,264.455C673.482,269.338 672.237,275.368 670.625,282.546C669.014,289.723 667.354,296.828 665.645,303.859C663.936,310.89 662.447,316.75 661.177,321.437L651.948,356.593L697.505,356.593Z"/>
            <path d="M861.356,230.031C880.789,230.031 896.951,232.399 909.842,237.135C922.732,241.872 932.425,248.927 938.919,258.302C945.413,267.677 948.66,279.347 948.66,293.312C948.66,302.004 947.195,309.914 944.266,317.043C941.336,324.171 937.161,330.544 931.741,336.159C926.321,341.774 919.852,346.681 912.332,350.88L974.734,444.191L909.109,444.191L863.699,366.261L849.051,366.261L849.051,444.191L791.19,444.191L791.19,230.031L861.356,230.031ZM860.477,273.83L849.051,273.83L849.051,322.755L859.891,322.755C868.777,322.755 876.053,320.802 881.717,316.896C887.381,312.99 890.213,306.007 890.213,295.949C890.213,289.015 887.869,283.595 883.182,279.689C878.494,275.783 870.926,273.83 860.477,273.83Z"/>
            <path d="M1071.28,274.416C1064.44,274.416 1058.34,275.856 1052.97,278.737C1047.6,281.618 1043.01,285.793 1039.2,291.261C1035.39,296.73 1032.48,303.395 1030.48,311.256C1028.48,319.118 1027.48,328.029 1027.48,337.99C1027.48,351.466 1029.19,362.795 1032.61,371.974C1036.02,381.154 1041.22,388.088 1048.21,392.775C1055.19,397.463 1063.95,399.806 1074.5,399.806C1084.07,399.806 1093.28,398.488 1102.11,395.851C1110.95,393.214 1119.86,390.041 1128.85,386.33L1128.85,435.255C1119.37,439.455 1109.68,442.482 1099.77,444.338C1089.86,446.193 1079.34,447.121 1068.2,447.121C1044.96,447.121 1025.94,442.506 1011.15,433.278C996.351,424.049 985.463,411.232 978.48,394.826C971.498,378.42 968.007,359.377 968.007,337.697C968.007,321.486 970.277,306.642 974.818,293.166C979.359,279.689 986.024,267.995 994.813,258.083C1003.6,248.171 1014.47,240.504 1027.41,235.085C1040.35,229.665 1055.16,226.955 1071.86,226.955C1082.22,226.955 1093.13,228.151 1104.6,230.544C1116.08,232.936 1127.28,236.769 1138.22,242.043L1120.5,287.599C1112.68,283.888 1104.77,280.763 1096.77,278.224C1088.76,275.685 1080.26,274.416 1071.28,274.416Z"/>
            <path d="M1273.44,444.191L1146.3,444.191L1146.3,230.031L1273.44,230.031L1273.44,276.466L1204.16,276.466L1204.16,310.158L1268.32,310.158L1268.32,356.593L1204.16,356.593L1204.16,397.023L1273.44,397.023L1273.44,444.191Z"/>
            <path d="M1298.64,444.191L1298.64,230.031L1356.5,230.031L1356.5,397.463L1438.98,397.463L1438.98,444.191L1298.64,444.191Z"/>
            <path d="M1643.34,336.818C1643.34,353.322 1641.37,368.337 1637.41,381.862C1633.45,395.387 1627.28,407.033 1618.88,416.798C1610.48,426.564 1599.69,434.059 1586.51,439.284C1573.32,444.508 1557.55,447.121 1539.19,447.121C1521.22,447.121 1505.67,444.508 1492.54,439.284C1479.4,434.059 1468.59,426.588 1460.09,416.872C1451.6,407.155 1445.3,395.509 1441.19,381.935C1437.09,368.361 1435.04,353.224 1435.04,336.525C1435.04,314.259 1438.73,294.899 1446.1,278.444C1453.48,261.989 1464.88,249.245 1480.31,240.212C1495.74,231.178 1515.46,226.662 1539.49,226.662C1563.9,226.662 1583.75,231.203 1599.03,240.285C1614.32,249.367 1625.52,262.16 1632.65,278.664C1639.78,295.168 1643.34,314.552 1643.34,336.818ZM1495.98,336.818C1495.98,349.709 1497.44,360.793 1500.37,370.07C1503.3,379.347 1507.94,386.476 1514.29,391.457C1520.64,396.437 1528.94,398.927 1539.19,398.927C1549.84,398.927 1558.31,396.437 1564.61,391.457C1570.91,386.476 1575.45,379.347 1578.23,370.07C1581.01,360.793 1582.41,349.709 1582.41,336.818C1582.41,317.482 1579.18,302.199 1572.74,290.968C1566.29,279.738 1555.21,274.123 1539.49,274.123C1529.04,274.123 1520.61,276.662 1514.22,281.74C1507.82,286.818 1503.18,294.045 1500.3,303.42C1497.42,312.795 1495.98,323.927 1495.98,336.818Z"/>
            <path d="M1867.62,444.191L1791.74,444.191L1713.52,293.312L1712.2,293.312C1712.69,297.902 1713.13,303.42 1713.52,309.865C1713.91,316.31 1714.25,322.878 1714.55,329.567C1714.84,336.256 1714.98,342.287 1714.98,347.658L1714.98,444.191L1663.72,444.191L1663.72,230.031L1739.3,230.031L1817.23,378.859L1818.11,378.859C1817.82,374.171 1817.52,368.727 1817.23,362.526C1816.94,356.325 1816.67,350.05 1816.42,343.703C1816.18,337.355 1816.06,331.74 1816.06,326.857L1816.06,230.031L1867.62,230.031L1867.62,444.191Z"/>
            <path d="M2033.01,444.191L2022.46,404.054L1952.88,404.054L1942.04,444.191L1878.47,444.191L1948.34,229.152L2025.54,229.152L2096.29,444.191L2033.01,444.191ZM2010.45,356.593L2001.22,321.437C2000.24,317.629 1998.83,312.184 1996.97,305.104C1995.12,298.024 1993.29,290.7 1991.48,283.131C1989.67,275.563 1988.28,269.338 1987.3,264.455C1986.42,269.338 1985.18,275.368 1983.57,282.546C1981.96,289.723 1980.3,296.828 1978.59,303.859C1976.88,310.89 1975.39,316.75 1974.12,321.437L1964.89,356.593L2010.45,356.593Z"/>
        </g>
        <g id="ZA-DEN" serif:id="ZA DEN" transform="matrix(1,0,0,1,-2349.1,-3116.61)">
            <g transform="matrix(0.770599,0,0,0.770599,58.4689,101.714)">
                <g>
                    <g transform="matrix(1,0,0,1,209.86,770.051)">
                        <text x="0px" y="0px" style="font-family:'OpenSans-Bold', 'Open Sans';font-weight:700;font-size:300px;">Z</text>
                    </g>
                    <g transform="matrix(1,0,0,1,371.291,770.051)">
                        <text x="0px" y="0px" style="font-family:'OpenSans-Bold', 'Open Sans';font-weight:700;font-size:300px;">A</text>
                    </g>
                </g>
            </g>
            <g transform="matrix(0.770599,0,0,0.770599,568.624,102.029)">
                <g>
                    <g transform="matrix(1,0,0,1,244.335,770.051)">
                        <text x="0px" y="0px" style="font-family:'OpenSans-Bold', 'Open Sans';font-weight:700;font-size:300px;">D</text>
                    </g>
                    <g transform="matrix(1,0,0,1,439.105,770.051)">
                        <text x="0px" y="0px" style="font-family:'OpenSans-Bold', 'Open Sans';font-weight:700;font-size:300px;">E<tspan x="140.718px " y="0px ">N</tspan></text>
                    </g>
                </g>
            </g>
        </g>
        <g id="_1" serif:id="1" transform="matrix(1,0,0,1,-2349.1,-3116.61)">
            <g transform="matrix(0.868307,0,0,0.868307,96.2459,108.23)">
                <circle cx="618.216" cy="583.501" r="136.024" style="fill:rgb(0,178,0);"/>
            </g>
            <g transform="matrix(0.770599,0,0,0.770599,580.836,672.59)">
                <text x="0px" y="0px" style="font-family:'OpenSans-ExtraBold', 'Open Sans';font-weight:800;font-size:216.282px;fill:white;">1</text>
            </g>
        </g>
        <g id="BSP" transform="matrix(1,0,0,1,-2349.1,-3116.61)">
            <g transform="matrix(0.994076,0,0,1.02988,7.69491,-20.7414)">
                <path d="M2271.97,557.398L2271.97,671.217C2271.97,683.927 2261.28,694.245 2248.11,694.245L1322.85,694.245C1309.68,694.245 1298.99,683.927 1298.99,671.217L1298.99,557.398C1298.99,544.689 1309.68,534.371 1322.85,534.371L2248.11,534.371C2261.28,534.371 2271.97,544.689 2271.97,557.398Z"/>
            </g>
            <g transform="matrix(0.770599,0,0,0.770599,1142.77,167.962)">
                <g>
                    <g transform="matrix(1,0,0,1,307.594,616.067)">
                        <text x="0px" y="0px" style="font-family:'OpenSans-ExtraBold', 'Open Sans';font-weight:800;font-size:97.327px;fill:white;">B</text>
                    </g>
                    <g transform="matrix(1,0,0,1,369.185,616.067)">
                        <text x="0px" y="0px" style="font-family:'OpenSans-ExtraBold', 'Open Sans';font-weight:800;font-size:97.327px;fill:white;">A<tspan x="66.676px 128.552px 187.72px 237.145px 289.802px 363.369px 440.548px 507.224px 528.516px 580.697px 601.989px 659.495px 726.165px 789.705px 842.365px 915.935px " y="0px 0px 0px 0px 0px 0px 0px 0px 0px 0px 0px 0px 0px 0px 0px 0px ">RCELONA S PAVLOU</tspan></text>
                    </g>
                </g>
            </g>
        </g>
    </g>
</svg>
